<?xml version="1.0" standalone="no"?>
<!DOCTYPE svg PUBLIC "-//W3C//DTD SVG 20010904//EN"
 "http://www.w3.org/TR/2001/REC-SVG-20010904/DTD/svg10.dtd">
<svg version="1.0" xmlns="http://www.w3.org/2000/svg"
 width="430.000000pt" height="442.000000pt" viewBox="0 0 430.000000 442.000000"
 preserveAspectRatio="xMidYMid meet">

<g transform="translate(0.000000,442.000000) scale(0.100000,-0.100000)"
fill="#000000" stroke="none">
<path d="M2810 4329 c-1110 -37 -2149 -101 -2468 -151 -56 -8 -77 -16 -88 -32
-62 -95 -166 -1782 -168 -2721 -1 -488 6 -608 44 -785 22 -103 81 -247 124
-304 101 -131 201 -145 1296 -181 856 -28 2277 -65 2475 -65 l70 0 74 1868
c40 1027 73 1900 74 1941 l2 75 -90 74 c-148 122 -247 194 -304 219 -151 67
-413 83 -1041 62z m-2340 -224 c465 -74 1913 -404 2294 -522 140 -44 150 -53
134 -128 -56 -274 -688 -1156 -1013 -1415 -140 -111 -564 -340 -810 -437 -214
-84 -486 -171 -707 -225 -115 -28 -211 -49 -213 -46 -4 4 9 266 70 1373 38
685 76 1262 91 1373 7 50 8 50 154 27z m3594 -192 c56 -144 8 -2398 -69 -3298
-21 -239 -34 -324 -55 -345 -70 -70 -630 -73 -2280 -15 -833 30 -1069 58
-1257 150 -87 43 -163 121 -191 198 -28 75 -45 203 -40 301 5 106 38 177 110
240 59 51 89 67 348 180 107 46 339 150 515 231 692 318 865 393 1057 456 144
47 135 50 289 -109 176 -180 387 -423 938 -1075 250 -295 460 -536 465 -534
25 8 15 41 -34 111 -68 98 -376 482 -630 786 -449 536 -746 927 -767 1008 -13
52 94 316 271 672 244 490 376 630 781 832 211 106 492 226 531 228 7 0 15 -8
18 -17z"/>
<path d="M902 3391 c-95 -33 -136 -90 -134 -186 1 -107 81 -275 176 -371 177
-176 452 -162 537 28 19 42 24 70 24 138 0 75 -4 93 -32 152 -57 120 -164 209
-297 244 -74 20 -209 17 -274 -5z m306 -106 c145 -43 233 -193 201 -343 -20
-100 -112 -163 -210 -147 -118 20 -246 131 -318 276 -23 45 -41 87 -41 95 0
94 215 164 368 119z"/>
<path d="M3427 2600 c-3 -30 -11 -251 -17 -490 -5 -239 -13 -496 -17 -569 l-6
-135 40 32 c82 65 439 428 461 470 43 78 -12 47 -191 -110 -42 -37 -91 -75
-108 -84 -29 -14 -32 -14 -50 2 -36 33 -46 108 -83 624 -17 233 -24 301 -29
260z"/>
<path d="M1715 1001 c-46 -21 -101 -79 -123 -130 -21 -49 -20 -148 2 -204 45
-119 157 -151 371 -107 53 11 128 20 167 20 60 0 72 -3 93 -25 14 -13 25 -36
25 -50 0 -62 95 -57 230 12 154 79 306 243 225 243 -8 0 -76 -31 -151 -70
-199 -101 -231 -102 -275 -8 -43 93 -85 98 -236 30 -119 -54 -158 -65 -228
-66 -106 -2 -158 49 -128 124 18 45 41 69 135 142 114 88 115 108 5 108 -48 0
-85 -7 -112 -19z"/>
</g>
</svg>
