<?xml version="1.0" standalone="no"?>
<!DOCTYPE svg PUBLIC "-//W3C//DTD SVG 20010904//EN"
 "http://www.w3.org/TR/2001/REC-SVG-20010904/DTD/svg10.dtd">
<svg version="1.0" xmlns="http://www.w3.org/2000/svg"
 width="964.000000pt" height="424.000000pt" viewBox="0 0 964.000000 424.000000"
 preserveAspectRatio="xMidYMid meet">
<metadata>
Created by potrace 1.16, written by Peter Selinger 2001-2019
</metadata>
<g transform="translate(0.000000,424.000000) scale(0.100000,-0.100000)"
fill="#000000" stroke="none">
<path d="M7615 4224 c-1158 -51 -1921 -107 -2004 -147 -30 -14 -36 -35 -55
-191 -62 -480 -124 -1619 -133 -2416 -9 -755 11 -932 133 -1172 75 -147 178
-185 569 -208 423 -24 2695 -90 3131 -90 l182 0 6 123 c10 177 146 3651 146
3714 l0 52 -147 120 c-286 233 -278 231 -1003 229 -294 0 -665 -7 -825 -14z
m-1672 -239 c661 -117 2178 -477 2272 -539 43 -28 27 -101 -58 -267 -227 -442
-752 -1108 -1007 -1276 -318 -210 -732 -400 -1157 -531 -183 -57 -480 -129
-489 -119 -4 4 -2 105 5 224 91 1693 99 1831 132 2262 11 146 22 268 25 273 9
15 80 8 277 -27z m3462 -182 c13 -50 17 -1108 6 -1543 -26 -970 -69 -1739
-112 -2003 -13 -80 -24 -91 -119 -107 -101 -18 -709 -24 -1190 -11 -556 15
-1230 38 -1480 51 -796 43 -988 155 -991 580 -1 105 1 115 30 175 57 115 93
138 481 308 118 52 388 174 600 272 566 261 858 383 998 415 l52 12 45 -41
c146 -135 419 -444 1032 -1169 270 -320 461 -538 473 -540 16 -3 20 2 20 26 0
48 -192 297 -680 882 -374 449 -546 667 -685 870 -86 126 -89 135 -64 212 34
103 115 289 225 517 254 524 397 688 761 874 206 105 532 245 574 247 10 0 20
-11 24 -27z"/>
<path d="M6283 3320 c-93 -19 -166 -78 -179 -146 -30 -163 116 -428 282 -512
197 -99 404 -34 454 142 8 28 11 79 8 130 -4 69 -10 96 -36 149 -87 177 -315
279 -529 237z m282 -137 c71 -24 148 -103 169 -173 32 -109 12 -208 -53 -263
-83 -70 -229 -37 -343 78 -64 65 -138 188 -145 244 -5 34 -2 43 22 65 24 23
113 58 175 70 40 7 121 -2 175 -21z"/>
<path d="M8760 2575 c0 -44 -7 -316 -16 -605 -8 -289 -14 -556 -12 -594 l3
-69 196 186 c200 189 319 323 319 358 0 10 -4 19 -8 19 -16 0 -98 -58 -162
-115 -107 -95 -161 -135 -180 -135 -47 0 -65 118 -101 675 -21 323 -39 452
-39 280z"/>
<path d="M7090 931 c-69 -21 -121 -65 -156 -131 -28 -52 -26 -191 3 -245 58
-110 164 -132 398 -85 160 32 245 17 245 -45 0 -45 21 -58 91 -53 108 7 274
103 362 209 48 60 51 83 11 87 -23 2 -67 -16 -167 -67 -182 -95 -213 -95 -258
3 -31 68 -69 83 -147 61 -31 -9 -79 -28 -106 -42 -157 -79 -303 -83 -337 -9
-24 52 9 98 164 229 65 55 73 81 26 91 -40 8 -97 6 -129 -3z"/>
<path d="M1440 3993 c-444 -8 -971 -32 -1154 -53 -239 -28 -269 -97 -282 -650
-7 -260 8 -1277 26 -1790 24 -678 60 -1205 93 -1334 15 -63 44 -81 169 -106
253 -51 563 -60 2111 -60 l1327 0 0 43 c0 40 20 506 80 1852 27 590 37 1263
21 1404 -24 218 -55 287 -235 529 l-128 172 -946 -2 c-521 -1 -1008 -3 -1082
-5z m-1170 -178 c422 -83 934 -212 1225 -310 340 -113 560 -215 650 -300 31
-29 36 -39 31 -62 -9 -42 -248 -516 -327 -650 -162 -273 -310 -427 -585 -611
-251 -168 -826 -466 -994 -516 -44 -13 -50 -13 -63 2 -47 53 -73 260 -88 715
-17 492 0 1526 27 1715 5 33 10 42 23 38 9 -3 54 -12 101 -21z m3395 -315 c83
-31 89 -254 40 -1350 -40 -882 -93 -1716 -119 -1870 -3 -14 -7 -42 -11 -62 -5
-35 -9 -39 -58 -53 -117 -34 -295 -46 -728 -52 -444 -6 -623 3 -699 33 -21 9
-41 22 -44 29 -3 8 13 40 35 72 71 105 47 158 -103 227 -194 90 -376 131 -553
124 -158 -6 -215 -38 -215 -120 0 -43 49 -122 92 -148 39 -24 100 -26 118 -5
14 16 10 52 -11 103 -13 31 -12 35 9 52 60 49 258 28 397 -43 57 -29 155 -96
155 -107 0 -11 -24 -14 -380 -45 -162 -15 -520 -48 -795 -75 -275 -28 -516
-51 -534 -52 l-35 -3 -39 220 c-33 190 -39 243 -40 385 -3 228 19 288 143 394
268 229 1116 682 1317 703 46 5 58 2 116 -30 129 -73 419 -303 687 -547 74
-68 344 -324 599 -569 743 -715 666 -632 -589 637 -377 381 -686 697 -688 701
-4 13 420 859 491 980 102 172 193 247 345 286 33 9 178 33 323 55 309 47 505
82 644 115 55 13 101 24 102 24 1 1 13 -3 28 -9z"/>
<path d="M1030 3310 c-79 -15 -137 -68 -161 -148 -16 -54 -2 -121 46 -220 41
-87 102 -155 170 -190 40 -21 64 -26 121 -27 60 0 76 4 112 28 64 42 87 94 87
197 0 71 -4 94 -26 141 -69 147 -223 243 -349 219z m140 -125 c72 -36 125 -88
156 -151 22 -44 25 -62 20 -99 -23 -148 -209 -161 -305 -22 -47 70 -79 187
-66 247 14 64 97 75 195 25z"/>
<path d="M451 2844 c-56 -21 -117 -82 -130 -131 -43 -153 47 -292 189 -293 52
0 134 38 219 100 30 22 61 40 68 40 22 0 35 -50 30 -111 -6 -65 -46 -150 -83
-176 -14 -10 -37 -28 -52 -40 l-27 -22 40 -1 c58 0 138 41 169 86 60 89 58
212 -7 348 -69 145 -154 207 -292 213 -55 2 -94 -2 -124 -13z m240 -64 c12 -7
19 -21 19 -41 0 -69 -59 -151 -144 -200 -87 -49 -133 -34 -123 40 9 74 94 168
176 197 45 16 48 16 72 4z"/>
<path d="M3156 2485 c-127 -45 -189 -233 -121 -371 17 -35 42 -66 65 -82 45
-32 71 -72 72 -110 2 -67 -30 -100 -78 -82 -41 16 -81 54 -147 138 -116 149
-169 192 -236 192 -53 0 -97 -38 -132 -115 -45 -100 -62 -191 -57 -303 3 -91
7 -106 42 -178 50 -99 174 -230 256 -268 68 -32 130 -34 176 -5 45 27 89 120
109 229 23 127 34 159 56 170 22 12 45 1 155 -75 55 -38 61 -40 135 -40 73 0
80 2 109 30 94 89 90 202 -14 397 -58 110 -106 247 -106 304 0 81 -64 155
-152 174 -63 13 -84 12 -132 -5z m110 -120 c75 -52 70 -211 -8 -268 -80 -59
-163 99 -114 217 25 59 79 82 122 51z m-462 -377 c137 -112 244 -427 192 -563
-29 -74 -69 -83 -153 -35 -142 82 -233 237 -233 400 0 131 72 251 141 233 9
-3 33 -18 53 -35z m675 -44 c52 -43 66 -136 32 -211 -33 -71 -98 -85 -168 -34
-76 55 -90 99 -54 169 23 45 46 66 91 86 49 21 64 20 99 -10z"/>
<path d="M1819 1042 c-101 -64 -199 -70 -352 -21 -53 18 -100 29 -104 26 -19
-20 104 -164 199 -234 43 -31 59 -36 111 -39 78 -3 184 -37 390 -123 250 -104
322 -127 363 -117 28 7 30 25 8 69 -41 79 -286 336 -386 405 -54 37 -117 62
-157 62 -15 0 -47 -13 -72 -28z m131 -78 c47 -13 109 -64 166 -137 49 -62 54
-72 37 -75 -25 -4 -221 69 -280 104 -59 34 -71 59 -43 89 31 33 58 37 120 19z"/>
</g>
</svg>
