<?xml version="1.0" standalone="no"?>
<!DOCTYPE svg PUBLIC "-//W3C//DTD SVG 20010904//EN"
 "http://www.w3.org/TR/2001/REC-SVG-20010904/DTD/svg10.dtd">
<svg version="1.0" xmlns="http://www.w3.org/2000/svg"
 width="526.000000pt" height="480.000000pt" viewBox="0 0 526.000000 480.000000"
 preserveAspectRatio="xMidYMid meet">
<metadata>
Created by potrace 1.16, written by Peter Selinger 2001-2019
</metadata>
<g transform="translate(0.000000,480.000000) scale(0.100000,-0.100000)"
fill="#000000" stroke="none">
<path d="M1810 4738 c-330 -34 -476 -169 -842 -776 -197 -327 -374 -659 -817
-1533 l-134 -264 168 -295 c267 -470 356 -606 465 -720 65 -67 100 -82 132
-54 21 19 21 19 15 -1 -3 -11 -13 -40 -22 -65 -70 -191 186 -520 548 -704 122
-62 257 -107 422 -141 374 -76 742 -100 1645 -108 l425 -4 175 311 c516 921
640 1142 817 1466 108 195 253 466 324 603 l129 248 0 91 0 91 -287 466 c-389
633 -492 786 -644 953 -101 112 -217 200 -344 263 -297 147 -647 186 -1630
184 -253 -1 -498 -6 -545 -11z m2342 -359 c36 -8 62 -21 83 -43 30 -30 193
-292 717 -1152 l244 -400 -144 -265 c-348 -637 -1136 -2076 -1203 -2196 l-74
-133 -675 0 c-687 0 -922 8 -1089 36 -173 29 -268 70 -335 145 -102 113 -115
247 -60 654 37 278 65 371 146 480 83 113 176 178 872 618 l418 264 367 -200
c628 -343 1072 -559 1097 -534 33 33 -265 211 -1113 666 -95 51 -173 97 -173
102 0 68 -138 1150 -186 1457 -16 103 -23 181 -19 208 15 105 101 141 546 229
357 71 483 85 581 64z m-1235 -439 c39 -265 108 -762 168 -1219 14 -107 22
-197 18 -201 -4 -4 -183 -114 -398 -245 -214 -131 -497 -305 -628 -386 -264
-164 -299 -178 -383 -156 -123 32 -254 127 -852 616 l-420 343 113 232 c62
127 232 473 379 769 l266 537 847 -2 848 -3 42 -285z"/>
<path d="M3640 3767 c0 -39 125 -93 387 -167 329 -94 433 -106 433 -51 0 36
-102 81 -330 146 -251 72 -490 107 -490 72z"/>
<path d="M4090 3325 c0 -3 63 -75 139 -158 185 -201 237 -268 278 -352 62
-129 38 -198 -90 -259 -223 -107 -418 -54 -508 139 -28 59 -33 82 -37 169 -3
66 2 132 12 191 21 119 21 205 1 205 -20 0 -96 -118 -125 -195 -31 -79 -34
-215 -6 -293 45 -131 210 -317 330 -373 59 -27 75 -31 135 -27 133 7 328 130
386 243 26 51 30 69 30 140 0 75 -4 88 -39 161 -58 116 -152 204 -340 319
-157 96 -166 100 -166 90z"/>
<path d="M2952 1530 c-112 -23 -174 -104 -240 -310 -63 -199 -98 -447 -73
-522 14 -42 47 -61 135 -77 129 -24 378 -6 474 35 85 35 112 83 123 224 9 118
41 234 89 326 17 31 30 72 30 90 0 79 -67 153 -174 193 -96 36 -285 57 -364
41z m320 -147 c37 -17 74 -43 84 -57 16 -26 16 -28 -6 -51 -32 -34 -109 -49
-227 -43 -182 9 -276 83 -185 146 47 33 85 42 177 39 77 -2 100 -7 157 -34z
m-293 -288 c143 -50 335 -251 301 -315 -25 -46 -92 -64 -256 -68 -303 -8 -365
38 -280 206 45 89 89 148 129 172 38 24 52 24 106 5z"/>
<path d="M2060 3712 c-108 -36 -209 -102 -385 -252 -171 -146 -188 -161 -183
-165 2 -2 102 50 223 116 241 131 341 176 409 185 39 6 48 3 70 -19 49 -49 31
-133 -94 -452 -103 -265 -193 -522 -215 -616 -29 -122 -11 -138 99 -86 159 75
608 408 584 432 -4 4 -54 -19 -110 -51 -308 -176 -378 -192 -378 -91 0 42 49
195 120 377 92 234 113 313 114 425 1 101 -17 153 -66 188 -38 28 -119 32
-188 9z"/>
<path d="M1140 3244 c0 -88 307 -733 427 -896 44 -60 68 -64 61 -10 -20 147
-423 932 -478 932 -6 0 -10 -12 -10 -26z"/>
</g>
</svg>
