<?xml version="1.0" standalone="no"?>
<!DOCTYPE svg PUBLIC "-//W3C//DTD SVG 20010904//EN"
 "http://www.w3.org/TR/2001/REC-SVG-20010904/DTD/svg10.dtd">
<svg version="1.0" xmlns="http://www.w3.org/2000/svg"
 width="605.000000pt" height="564.000000pt" viewBox="0 0 605.000000 564.000000"
 preserveAspectRatio="xMidYMid meet">
<metadata>
Created by potrace 1.16, written by Peter Selinger 2001-2019
</metadata>
<g transform="translate(0.000000,564.000000) scale(0.100000,-0.100000)"
fill="#000000" stroke="none">
<path d="M1981 5222 c-666 -595 -1577 -1417 -1915 -1729 -68 -62 -69 -65 -60
-98 5 -19 259 -630 564 -1358 l555 -1323 385 -98 c1388 -355 2164 -547 2270
-562 42 -6 49 -3 108 41 135 99 422 373 761 725 385 401 1376 1472 1373 1485
-2 11 -504 1294 -655 1675 -218 549 -483 1149 -549 1243 -15 21 -27 27 -56 27
-36 0 -470 53 -1027 126 -536 69 -1331 174 -1354 178 -19 3 -93 -58 -400 -332z
m2732 -111 c37 -14 42 -67 28 -310 -31 -552 -131 -1382 -187 -1553 l-15 -48
-37 16 c-103 42 -544 332 -947 621 -932 669 -1156 826 -1337 936 l-106 64 91
22 c385 89 1347 213 1957 251 96 6 200 12 230 14 89 6 295 -3 323 -13z m-2907
-303 c-43 -638 -327 -2628 -375 -2628 -15 0 -113 70 -200 144 -47 39 -175 159
-285 266 -308 299 -456 422 -581 481 -69 33 -76 34 -115 14 -35 -18 -37 -13
-10 22 30 38 27 125 -5 182 -14 23 -25 55 -25 70 0 92 243 369 679 770 425
393 883 781 920 781 2 0 1 -46 -3 -102z m304 2 c21 -40 461 -377 991 -759 292
-211 845 -625 1006 -754 222 -177 464 -397 459 -416 -26 -84 -383 -1408 -436
-1616 -130 -514 -190 -815 -162 -815 33 0 179 479 527 1730 97 349 179 637
181 639 7 7 131 -48 404 -180 285 -137 360 -169 514 -218 138 -44 209 -50 265
-22 24 13 45 20 48 17 19 -19 -158 -245 -462 -591 -508 -579 -1034 -1140
-1272 -1357 -167 -153 -190 -170 -215 -157 -31 17 -119 -16 -207 -76 -44 -30
-83 -55 -85 -55 -3 0 -3 7 0 15 27 69 -348 403 -1056 940 -521 395 -904 707
-931 756 -8 16 -1 23 48 48 162 81 568 229 1348 491 1030 346 1431 500 1300
500 -107 0 -767 -204 -2007 -619 -443 -149 -808 -271 -811 -271 -2 0 9 64 25
142 38 190 92 569 173 1208 70 556 113 836 165 1065 55 247 84 326 132 355 41
25 45 25 58 0z m-398 -3153 c491 -329 1590 -1151 1782 -1332 31 -29 36 -39 25
-46 -43 -27 -237 5 -643 107 -276 70 -412 111 -473 143 l-38 20 32 1 c30 0 63
21 63 40 0 17 -52 70 -118 118 -121 90 -249 142 -347 142 -52 0 -95 -20 -95
-45 0 -16 16 -22 95 -30 133 -15 214 -86 166 -146 -18 -23 -25 -24 -128 -23
-190 1 -570 100 -687 178 -88 60 -111 110 -110 236 1 103 16 192 69 395 63
241 129 385 176 385 10 0 114 -64 231 -143z"/>
<path d="M4003 4813 c-63 -6 -56 -29 15 -48 122 -35 154 -48 187 -80 19 -18
35 -39 35 -46 0 -29 -41 -80 -87 -109 -104 -66 -227 -97 -546 -139 -126 -16
-230 -31 -233 -33 -10 -10 423 -304 498 -338 44 -20 88 -26 88 -12 0 17 -51
65 -160 152 -114 91 -138 115 -125 128 4 4 73 10 153 13 206 9 320 50 423 150
63 61 89 115 89 182 0 72 -28 113 -101 150 -58 29 -144 40 -236 30z"/>
<path d="M1004 3716 c-164 -53 -311 -151 -354 -237 -66 -129 25 -252 240 -325
79 -27 219 -25 282 4 132 59 203 217 178 395 -14 95 -43 143 -107 176 -37 19
-161 12 -239 -13z m226 -190 c0 -129 -14 -202 -52 -264 -21 -35 -64 -62 -98
-62 -40 0 -23 101 47 270 55 134 84 191 94 185 5 -4 9 -61 9 -129z m-325 -16
c44 -49 21 -186 -39 -225 -45 -30 -112 2 -130 62 -16 52 76 183 128 183 13 0
31 -9 41 -20z"/>
<path d="M2847 3680 c-114 -63 -115 -274 -2 -505 140 -286 242 -365 366 -287
60 38 135 125 166 191 44 93 20 183 -100 361 -137 204 -314 303 -430 240z
m199 -140 c69 -39 137 -118 185 -215 53 -109 67 -181 45 -239 -9 -24 -33 -60
-53 -80 -30 -29 -44 -36 -77 -36 -34 0 -46 6 -85 48 -26 26 -60 72 -77 102
-48 85 -143 305 -156 362 -11 48 -11 52 11 69 18 14 40 19 90 19 55 0 75 -5
117 -30z"/>
<path d="M2245 3410 c-87 -22 -149 -72 -165 -131 -29 -105 36 -113 159 -20 66
50 109 65 144 52 39 -15 59 -63 59 -140 -1 -85 -9 -119 -81 -336 -85 -258 -97
-337 -55 -379 38 -39 158 -5 347 100 119 66 151 86 195 128 33 31 40 50 22 61
-20 12 -153 -36 -293 -106 -77 -39 -146 -68 -154 -64 -25 9 -10 75 62 288 97
289 110 359 79 436 -35 89 -193 144 -319 111z"/>
<path d="M3567 1993 c-44 -44 131 -594 213 -668 18 -16 23 -17 31 -5 29 46
-66 392 -161 581 -43 86 -65 110 -83 92z"/>
<path d="M2780 1830 c0 -50 65 -211 170 -425 136 -275 188 -343 246 -321 20 8
68 115 94 212 28 104 37 230 20 289 -25 88 -63 111 -220 134 -83 13 -192 59
-254 110 -48 39 -56 39 -56 1z m383 -251 c32 -25 51 -89 42 -143 -9 -57 -41
-126 -59 -126 -20 0 -76 82 -92 138 -33 107 36 189 109 131z"/>
<path d="M4870 1830 c-61 -32 -307 -305 -298 -331 2 -7 44 21 93 62 141 116
170 138 216 159 75 34 114 26 179 -35 44 -42 109 -85 126 -85 21 0 17 44 -8
76 -42 56 -103 117 -147 145 -53 34 -108 37 -161 9z"/>
</g>
</svg>
