<?xml version="1.0" standalone="no"?>
<!DOCTYPE svg PUBLIC "-//W3C//DTD SVG 20010904//EN"
 "http://www.w3.org/TR/2001/REC-SVG-20010904/DTD/svg10.dtd">
<svg version="1.0" xmlns="http://www.w3.org/2000/svg"
 width="584.000000pt" height="554.000000pt" viewBox="0 0 584.000000 554.000000"
 preserveAspectRatio="xMidYMid meet">

<g transform="translate(0.000000,554.000000) scale(0.100000,-0.100000)"
fill="#000000" stroke="none">
<path d="M3115 5446 c-296 -369 -3045 -3949 -3045 -3964 0 -4 181 -76 403
-161 631 -241 1524 -586 2357 -910 421 -164 786 -306 811 -316 l46 -17 84 42
c212 107 1030 580 1364 790 180 113 388 258 498 345 97 78 177 163 177 187 0
20 -332 577 -612 1028 -836 1346 -1939 3001 -2022 3033 -7 3 -34 -23 -61 -57z
m80 -361 c9 -121 68 -843 131 -1605 63 -762 146 -1767 184 -2235 38 -467 71
-872 74 -899 l5 -48 -38 6 c-334 53 -2902 1015 -3181 1191 -38 24 -42 29 -36
58 39 207 729 1148 982 1339 51 38 55 39 109 33 49 -7 60 -5 94 18 40 27 87
105 72 120 -5 5 -40 -7 -80 -27 -83 -42 -91 -43 -91 -13 0 45 131 246 378 577
364 490 1151 1503 1316 1694 48 56 51 57 57 35 4 -13 15 -123 24 -244z m238
-6 c258 -379 655 -1003 1617 -2548 546 -877 709 -1146 699 -1152 -8 -5 -286
-173 -619 -373 -1091 -656 -1357 -798 -1418 -760 -20 13 -21 24 -52 439 -22
287 -84 1051 -190 2340 -66 808 -124 1571 -139 1855 -6 102 -13 223 -17 269
-4 65 -2 82 8 79 7 -3 57 -69 111 -149z"/>
<path d="M1701 3329 c-31 -33 -45 -114 -38 -226 5 -97 118 -660 152 -764 42
-127 78 -96 314 270 72 111 123 197 113 191 -9 -5 -107 -90 -217 -188 l-200
-179 -6 376 c-7 388 -14 456 -53 516 -20 31 -39 32 -65 4z"/>
<path d="M3040 2902 c-117 -58 -277 -158 -385 -241 -111 -84 -205 -166 -196
-169 18 -6 247 116 366 195 66 44 171 121 233 172 152 124 150 127 -18 43z"/>
<path d="M1970 2094 c-294 -353 -390 -497 -390 -588 0 -59 25 -88 107 -122 93
-38 147 -76 183 -129 41 -59 56 -105 64 -195 9 -91 15 -120 27 -120 5 0 24 33
43 73 42 92 111 182 175 230 59 43 64 63 19 72 -62 12 -67 16 -85 63 -27 69
-23 355 10 672 13 135 24 246 22 248 -1 1 -80 -90 -175 -204z m53 -195 c9 -33
-11 -179 -33 -252 -46 -149 -151 -239 -229 -197 -73 39 -38 218 66 339 45 53
148 131 173 131 10 0 20 -10 23 -21z"/>
<path d="M4561 3000 c-67 -92 -107 -284 -81 -389 15 -65 80 -153 153 -210 94
-72 105 -43 25 69 -113 156 -118 164 -118 199 0 26 8 41 36 65 94 81 112 103
119 140 9 47 -7 104 -39 139 -35 38 -61 34 -95 -13z"/>
<path d="M3841 2814 c-64 -89 -83 -151 -89 -284 -4 -105 -2 -122 23 -195 25
-75 60 -134 95 -162 22 -18 77 -16 112 5 31 18 108 124 108 148 0 18 -31 18
-56 -1 -32 -24 -87 -19 -119 13 -86 84 -102 257 -44 455 11 38 18 71 16 74 -3
2 -23 -21 -46 -53z"/>
<path d="M4542 2083 c6 -71 172 -699 205 -778 31 -74 56 -100 74 -75 15 22 3
173 -26 319 -58 284 -139 512 -201 560 -44 35 -57 28 -52 -26z"/>
</g>
</svg>
