<?xml version="1.0" standalone="no"?>
<!DOCTYPE svg PUBLIC "-//W3C//DTD SVG 20010904//EN"
 "http://www.w3.org/TR/2001/REC-SVG-20010904/DTD/svg10.dtd">
<svg version="1.0" xmlns="http://www.w3.org/2000/svg"
 width="474.000000pt" height="437.000000pt" viewBox="0 0 474.000000 437.000000"
 preserveAspectRatio="xMidYMid meet">

<g transform="translate(0.000000,437.000000) scale(0.100000,-0.100000)"
fill="#000000" stroke="none">
<path d="M1810 4239 c-1003 -148 -1540 -232 -1582 -245 -10 -3 -20 -19 -23
-37 -5 -33 -24 -339 -50 -822 -12 -223 -95 -1960 -107 -2234 l-3 -65 625 -258
c344 -142 798 -330 1010 -418 300 -124 395 -160 429 -160 33 0 1676 412 2526
633 l50 13 7 125 c11 186 50 2593 46 2823 l-3 199 -1085 273 c-670 169 -1102
273 -1130 273 -25 -1 -344 -45 -710 -100z m-969 -512 c826 -251 1212 -387
1236 -438 34 -72 58 -708 50 -1329 -13 -959 -30 -1825 -36 -1832 -7 -9 -928
355 -1266 500 -414 177 -581 261 -595 298 -20 52 -30 254 -30 604 0 407 5 549
55 1530 41 802 43 833 58 827 7 -2 244 -75 528 -160z m3792 -3008 c-5 -4 -366
-90 -803 -192 -1308 -306 -1519 -352 -1531 -340 -30 30 -49 823 -49 2085 0
950 1 1007 18 1012 65 19 661 126 1262 226 438 73 752 130 955 173 l150 32 3
-1494 c1 -822 -1 -1498 -5 -1502z"/>
<path d="M1044 2749 c-267 -102 -424 -672 -309 -1124 50 -198 171 -382 299
-456 63 -36 88 -36 153 -3 243 121 288 588 79 821 -62 69 -120 95 -232 104
-118 10 -165 23 -205 56 -30 26 -31 29 -26 83 13 145 199 376 364 454 94 43
107 50 107 61 2 28 -160 31 -230 4z m62 -715 c88 -42 171 -213 194 -399 26
-209 -59 -405 -174 -405 -50 0 -83 19 -140 80 -57 60 -128 204 -152 305 -24
106 -16 235 20 308 51 106 161 154 252 111z"/>
<path d="M3429 2536 c-105 -43 -230 -160 -284 -266 -75 -148 -73 -291 7 -441
31 -59 74 -108 196 -222 115 -108 109 -124 -124 -324 -168 -143 -170 -153 -31
-153 161 1 346 37 601 117 169 54 169 59 -4 62 -112 2 -228 17 -247 32 -22 19
-15 47 20 86 49 56 67 85 67 110 0 34 -52 86 -122 123 -166 87 -251 176 -290
303 -40 132 -7 269 87 362 99 99 230 126 424 86 179 -36 191 -26 67 56 -140
93 -256 115 -367 69z"/>
</g>
</svg>
