<?xml version="1.0" standalone="no"?>
<!DOCTYPE svg PUBLIC "-//W3C//DTD SVG 20010904//EN"
 "http://www.w3.org/TR/2001/REC-SVG-20010904/DTD/svg10.dtd">
<svg version="1.0" xmlns="http://www.w3.org/2000/svg"
 width="434.000000pt" height="401.000000pt" viewBox="0 0 434.000000 401.000000"
 preserveAspectRatio="xMidYMid meet">

<g transform="translate(0.000000,401.000000) scale(0.100000,-0.100000)"
fill="#000000" stroke="none">
<path d="M3010 3905 c-289 -13 -795 -35 -1125 -50 -1058 -45 -1816 -88 -1861
-106 -25 -9 -26 2 7 -239 106 -775 567 -3431 601 -3466 6 -6 2326 148 2888
191 644 50 820 85 820 159 0 12 -11 66 -25 121 -14 55 -82 379 -150 720 -154
761 -203 969 -272 1145 -37 93 -57 118 -88 113 -35 -7 -41 17 -21 88 41 150 9
434 -118 1044 l-63 300 -34 1 c-19 1 -270 -9 -559 -21z m-81 -119 c-2 -1 -80
-38 -174 -80 -251 -115 -355 -173 -355 -199 0 -27 165 23 472 144 124 49 266
100 313 114 93 27 193 33 213 13 48 -48 -30 -180 -312 -525 l-139 -170 -726
183 c-712 179 -1121 270 -1320 295 -97 12 -132 8 -101 -11 55 -35 423 -139
950 -269 459 -112 675 -171 870 -237 162 -54 176 -63 159 -96 -48 -91 -405
-534 -1119 -1388 -607 -725 -883 -1067 -921 -1141 -10 -21 -17 -39 -14 -39 40
0 245 236 1265 1450 849 1011 908 1080 926 1080 19 0 100 -95 169 -200 107
-163 201 -332 393 -705 346 -675 505 -945 560 -953 36 -5 53 -44 68 -156 17
-131 36 -213 68 -301 15 -37 26 -80 26 -95 0 -84 -145 -118 -685 -160 -281
-21 -1539 -109 -1955 -136 -330 -22 -730 -24 -785 -5 -55 18 -84 47 -91 90 -3
20 -25 142 -50 271 -57 309 -125 694 -284 1610 -168 972 -248 1410 -266 1473
-5 16 40 17 923 16 944 -2 1173 5 1232 36 15 7 77 23 137 34 143 27 570 71
553 57z"/>
<path d="M798 2901 c-101 -33 -222 -114 -259 -175 -27 -44 -24 -111 6 -172 13
-27 62 -91 107 -142 207 -232 253 -305 268 -430 19 -145 73 -221 175 -242 135
-28 341 50 448 169 49 54 97 155 97 202 0 135 -309 323 -441 269 -26 -11 -32
-11 -40 1 -14 22 -11 63 12 151 28 106 22 178 -18 251 -66 118 -208 165 -355
118z m212 -90 c77 -55 100 -205 47 -313 -86 -175 -275 -196 -361 -39 -54 100
-26 214 75 305 81 73 176 92 239 47z m370 -542 c89 -40 140 -113 140 -199 0
-137 -114 -240 -265 -240 -159 0 -252 98 -225 238 19 103 65 171 135 203 56
26 156 25 215 -2z"/>
<path d="M2658 1415 c-104 -70 -193 -293 -186 -466 3 -78 6 -92 33 -130 95
-134 382 -173 551 -74 25 15 54 41 63 57 34 64 58 93 90 115 88 60 251 -7 251
-102 0 -40 -15 -82 -75 -213 -26 -57 -45 -106 -42 -108 11 -11 199 231 241
310 64 121 3 185 -220 231 -139 29 -216 3 -292 -98 -67 -88 -154 -134 -272
-144 -124 -10 -244 36 -267 104 -23 66 27 166 154 305 107 118 136 184 97 222
-24 24 -84 20 -126 -9z"/>
</g>
</svg>
